<svg xmlns="http://www.w3.org/2000/svg" width="48" height="48" id="authorization"><g transform="translate(0 -1004.362)"><circle cx="24" cy="1028.362" r="24" fill="#1d67b1"></circle><g transform="translate(343.503 -568.402)"><path fill="#d2dce9" d="M-305.503 1587.765v-2c0-1.108-.892-2-2-2h-21c1.108 0 2 .892 2 2v2h21z"></path><path fill="#f0f4f7" d="M-328.502 1583.764c-1.108 0-2 .892-2 2v20c0 1.108-.892 2-2 2H-311.502c1.108 0 2-.892 2-2v-18h-17v-2c0-1.108-.892-2-2-2z"></path><path style="isolation:auto;mix-blend-mode:normal" fill="#ee7581" d="M-314.503 1602.633v8.327l-1.931-1.212-2.07 1.212v-8.062" color="#000" overflow="visible"></path><path fill="none" stroke="#d15d6a" stroke-linecap="round" stroke-linejoin="round" d="M-316.503 1605.245v2.52"></path><path fill="#0c5286" d="M-312.835 1604.395c-.137.138-1.329-.013-1.497.085-.168.099-.62 1.211-.808 1.263-.188.052-1.144-.676-1.34-.675-.194.001-1.142.74-1.33.69-.19-.049-.654-1.157-.823-1.254-.17-.097-1.36.07-1.498-.068-.139-.137.013-1.329-.085-1.497-.099-.168-1.212-.62-1.264-.808-.051-.188.676-1.144.675-1.34 0-.194-.74-1.142-.69-1.33.05-.19 1.158-.654 1.254-.823.097-.17-.069-1.36.068-1.498.137-.139 1.33.013 1.498-.085.168-.1.62-1.212.808-1.264.188-.05 1.144.676 1.339.675.195 0 1.143-.74 1.331-.69.189.05.653 1.158.823 1.254.17.096 1.36-.069 1.498.068.138.137-.013 1.33.085 1.497.098.169 1.212.62 1.263.808.052.189-.676 1.145-.674 1.34 0 .195.739 1.143.69 1.331-.05.189-1.158.653-1.254.823-.097.169.068 1.359-.069 1.498z"></path><circle cx="-316.503" cy="1600.765" r="3" fill="#406b95"></circle><path style="isolation:auto;mix-blend-mode:normal" fill="#f9b536" d="M-110 1250.362c-.5.416-4.064-1.72-4.712-1.677-.65.043-3.899 2.633-4.45 2.287-.55-.347.381-4.397.14-5-.242-.604-3.71-2.895-3.55-3.525.16-.63 4.299-.997 4.798-1.413.5-.416 1.607-4.422 2.256-4.465.648-.043 2.276 3.78 2.826 4.127.55.346 4.702.161 4.943.765.242.604-2.891 3.333-3.05 3.963-.16.63 1.299 4.522.799 4.938z" color="#000" overflow="visible" transform="matrix(.26071 .01592 -.01573 .26396 -266.949 1274.377)"></path><path fill="none" stroke="#8fb6d7" stroke-linecap="round" stroke-linejoin="round" d="M-328.003 1590.765h16m-16 3h16m-16 3h6m-6 3h5"></path><path fill="none" stroke="#2dbca4" stroke-linecap="round" stroke-linejoin="round" d="M-328.003 1604.765h6"></path><path fill="#d2dce9" d="M-330.503 1603.765v2c0 1.108-.892 2-2 2s-2-.892-2-2v-2"></path></g></g></svg>