<svg id="SvgjsSvg1014" width="288" height="288" xmlns="http://www.w3.org/2000/svg" version="1.1" xmlns:xlink="http://www.w3.org/1999/xlink" xmlns:svgjs="http://svgjs.com/svgjs"><defs id="SvgjsDefs1015"></defs><g id="SvgjsG1016"><svg xmlns="http://www.w3.org/2000/svg" data-name="Layer 1" viewBox="0 0 512 512" width="288" height="288"><circle cx="256" cy="256" r="256" fill="#ffffff" class="colorc0c6d1 svgShape"></circle><circle cx="256" cy="142.83" r="84.2" fill="#c0c6d1" class="colorf6f7f8 svgShape"></circle><path fill="#c0c6d1" d="M256,453.36h0a143.27,143.27,0,0,1-137.43-102.8h0C103.49,299.35,141.88,248,195.27,248H316.73c53.39,0,91.78,51.33,76.7,102.54h0A143.27,143.27,0,0,1,256,453.36Z" class="colore9ebef svgShape"></path><path fill="#c0c6d1" d="M345.1,381.26,325.82,389a15,15,0,0,1-11.12,0l-19.27-7.76a9.81,9.81,0,0,1-6.17-9.11V319.23a8,8,0,0,1,7.95-7.94h46.1a8,8,0,0,1,7.95,7.94v52.92A9.81,9.81,0,0,1,345.1,381.26Z" class="color37a1f7 svgShape"></path></svg></g></svg>